<mxfile host="65bd71144e">
    <diagram id="UDY6X7nuhw2dX7a9RGjf" name="Page-1">
        <mxGraphModel dx="3799" dy="2494" grid="1" gridSize="10" guides="1" tooltips="1" connect="1" arrows="1" fold="1" page="1" pageScale="1" pageWidth="850" pageHeight="1100" math="0" shadow="0">
            <root>
                <mxCell id="0"/>
                <mxCell id="1" parent="0"/>
                <mxCell id="3" value="XỬ LÝ DATA CHO UNDO-REDO&lt;div&gt;&lt;b&gt;FILE : FuncDataProcessing&lt;/b&gt;&lt;/div&gt;" style="shape=partialRectangle;whiteSpace=wrap;html=1;left=0;right=0;fillColor=none;" parent="1" vertex="1">
                    <mxGeometry x="-690" y="-2085" width="120" height="60" as="geometry"/>
                </mxCell>
                <mxCell id="36" style="edgeStyle=none;html=1;" parent="1" source="4" target="3" edge="1">
                    <mxGeometry relative="1" as="geometry"/>
                </mxCell>
                <mxCell id="4" value="Func :&lt;div&gt;&lt;u&gt;AddNewData&lt;/u&gt;(&lt;/div&gt;&lt;div style=&quot;&quot;&gt;&lt;span style=&quot;color: rgb(63, 63, 63); background-color: transparent;&quot;&gt;&lt;span style=&quot;white-space: pre;&quot;&gt;&#x9;&lt;/span&gt;RawFilePath:string&lt;/span&gt;&lt;/div&gt;&lt;div style=&quot;&quot;&gt;&lt;span style=&quot;color: rgb(63, 63, 63); background-color: transparent;&quot;&gt;&lt;span style=&quot;white-space: pre;&quot;&gt;&#x9;&lt;/span&gt;AddedData: new date for updating&lt;/span&gt;&lt;/div&gt;&lt;div style=&quot;&quot;&gt;&lt;span style=&quot;color: rgb(63, 63, 63); background-color: transparent;&quot;&gt;&lt;span style=&quot;white-space: pre;&quot;&gt;&#x9;&lt;/span&gt;Index&amp;nbsp;: add into data[n]&lt;br&gt;&lt;/span&gt;&lt;/div&gt;&lt;div style=&quot;&quot;&gt;&lt;span style=&quot;color: rgb(63, 63, 63); background-color: transparent;&quot;&gt;&lt;span style=&quot;white-space: pre;&quot;&gt;&#x9;&lt;/span&gt;AddAtIdx : add into data[n][AddAtIdx]&lt;br&gt;&lt;/span&gt;&lt;/div&gt;&lt;div&gt;&lt;span style=&quot;color: rgb(63, 63, 63); background-color: transparent;&quot;&gt;)&lt;/span&gt;&lt;/div&gt;" style="rounded=0;whiteSpace=wrap;html=1;align=left;shadow=1;" parent="1" vertex="1">
                    <mxGeometry x="-960" y="-2120" width="240" height="130" as="geometry"/>
                </mxCell>
                <mxCell id="29" style="edgeStyle=none;html=1;entryX=0;entryY=0.5;entryDx=0;entryDy=0;" parent="1" source="7" target="4" edge="1">
                    <mxGeometry relative="1" as="geometry"/>
                </mxCell>
                <mxCell id="33" style="edgeStyle=none;html=1;entryX=1;entryY=0.25;entryDx=0;entryDy=0;" parent="1" source="7" target="20" edge="1">
                    <mxGeometry relative="1" as="geometry"/>
                </mxCell>
                <mxCell id="7" value="Func :&lt;div&gt;&lt;u&gt;Read(&lt;/u&gt;&lt;/div&gt;&lt;div&gt;&lt;span style=&quot;text-decoration-line: underline; white-space: pre;&quot;&gt;&#x9;&lt;/span&gt;RawFilePath: string&lt;br&gt;&lt;/div&gt;&lt;div&gt;&lt;u&gt;)&lt;/u&gt;&amp;nbsp;&lt;b&gt;-&amp;gt; list&lt;/b&gt;&lt;/div&gt;" style="rounded=0;whiteSpace=wrap;html=1;align=left;shadow=1;" parent="1" vertex="1">
                    <mxGeometry x="-1140" y="-2165" width="140" height="90" as="geometry"/>
                </mxCell>
                <mxCell id="30" style="edgeStyle=none;html=1;entryX=0;entryY=0.5;entryDx=0;entryDy=0;" parent="1" source="9" target="4" edge="1">
                    <mxGeometry relative="1" as="geometry"/>
                </mxCell>
                <mxCell id="34" style="edgeStyle=none;html=1;entryX=1;entryY=0.75;entryDx=0;entryDy=0;" parent="1" source="9" target="20" edge="1">
                    <mxGeometry relative="1" as="geometry"/>
                </mxCell>
                <mxCell id="9" value="Func :&lt;div&gt;&lt;u&gt;Write(&lt;/u&gt;&lt;/div&gt;&lt;div&gt;&lt;span style=&quot;text-decoration-line: underline; white-space: pre;&quot;&gt;&#x9;&lt;/span&gt;RawFilePath: string&lt;br&gt;&lt;/div&gt;&lt;div&gt;&lt;span style=&quot;white-space: pre;&quot;&gt;&#x9;&lt;/span&gt;data : data to wirte into file Json&lt;br&gt;&lt;/div&gt;&lt;div&gt;&lt;u&gt;)&lt;/u&gt;&amp;nbsp;&lt;b&gt;-&amp;gt; None&lt;/b&gt;&lt;/div&gt;" style="rounded=0;whiteSpace=wrap;html=1;align=left;shadow=1;" parent="1" vertex="1">
                    <mxGeometry x="-1210" y="-2060" width="210" height="90" as="geometry"/>
                </mxCell>
                <mxCell id="16" value="undo_redo description" style="swimlane;fontStyle=0;childLayout=stackLayout;horizontal=1;startSize=30;horizontalStack=0;resizeParent=1;resizeParentMax=0;resizeLast=0;collapsible=1;marginBottom=0;whiteSpace=wrap;html=1;" parent="1" vertex="1">
                    <mxGeometry x="-1820" y="-2080" width="140" height="90" as="geometry"/>
                </mxCell>
                <mxCell id="17" value="n == 0 : execute Undo" style="text;strokeColor=none;fillColor=none;align=left;verticalAlign=middle;spacingLeft=4;spacingRight=4;overflow=hidden;points=[[0,0.5],[1,0.5]];portConstraint=eastwest;rotatable=0;whiteSpace=wrap;html=1;" parent="16" vertex="1">
                    <mxGeometry y="30" width="140" height="30" as="geometry"/>
                </mxCell>
                <mxCell id="18" value="n == 1 : execute Redo" style="text;strokeColor=none;fillColor=none;align=left;verticalAlign=middle;spacingLeft=4;spacingRight=4;overflow=hidden;points=[[0,0.5],[1,0.5]];portConstraint=eastwest;rotatable=0;whiteSpace=wrap;html=1;" parent="16" vertex="1">
                    <mxGeometry y="60" width="140" height="30" as="geometry"/>
                </mxCell>
                <mxCell id="20" value="&lt;b&gt;MAIN Func:&lt;/b&gt;&lt;div&gt;&lt;b&gt;undo_redo(&lt;/b&gt;&lt;/div&gt;&lt;div&gt;&lt;span style=&quot;white-space: pre;&quot;&gt;&#x9;&lt;/span&gt;cur_canvas: canvas&lt;/div&gt;&lt;div&gt;&lt;span style=&quot;white-space: pre;&quot;&gt;&#x9;&lt;/span&gt;n: int&lt;/div&gt;&lt;div&gt;&lt;b&gt;)&lt;/b&gt;&lt;/div&gt;" style="rounded=0;whiteSpace=wrap;html=1;align=left;" parent="1" vertex="1">
                    <mxGeometry x="-1830" y="-2175" width="160" height="90" as="geometry"/>
                </mxCell>
                <mxCell id="24" value="&lt;b&gt;XỬ LÝ CHỨC NĂNG CHO BUTTON&lt;/b&gt;&lt;br&gt;&lt;div&gt;&lt;b&gt;FILE : function.py&lt;/b&gt;&lt;/div&gt;&lt;div&gt;&lt;b&gt;&lt;u&gt;MAIN func&lt;/u&gt;&lt;/b&gt;&lt;/div&gt;" style="shape=partialRectangle;whiteSpace=wrap;html=1;left=0;right=0;fillColor=none;" parent="1" vertex="1">
                    <mxGeometry x="-2130" y="-2040" width="180" height="70" as="geometry"/>
                </mxCell>
                <mxCell id="35" style="edgeStyle=none;html=1;entryX=0.977;entryY=0.368;entryDx=0;entryDy=0;entryPerimeter=0;" parent="1" source="20" target="24" edge="1">
                    <mxGeometry relative="1" as="geometry"/>
                </mxCell>
                <mxCell id="38" value="Func :&lt;div&gt;&lt;u&gt;RemoveThenRewrite(&lt;/u&gt;&lt;/div&gt;&lt;div&gt;&lt;span style=&quot;text-decoration-line: underline; white-space: pre;&quot;&gt;&#x9;&lt;/span&gt;RawFilePath: string&lt;br&gt;&lt;/div&gt;&lt;div&gt;&lt;span style=&quot;white-space: pre;&quot;&gt;&#x9;&lt;/span&gt;data_root: list&lt;/div&gt;&lt;div&gt;&lt;span style=&quot;color: rgb(63, 63, 63); background-color: transparent; white-space: pre;&quot;&gt;&#x9;&lt;/span&gt;Index&lt;span style=&quot;color: rgb(63, 63, 63); background-color: transparent;&quot;&gt;&amp;nbsp;: remove tag from data_root[n]&lt;/span&gt;&lt;/div&gt;&lt;div&gt;&lt;span style=&quot;white-space: pre;&quot;&gt;&#x9;&lt;/span&gt;cur_canvas: Canvas&lt;br&gt;&lt;/div&gt;&lt;div&gt;&lt;u&gt;)&lt;/u&gt;&amp;nbsp;&lt;b&gt;-&amp;gt; None&lt;/b&gt;&lt;/div&gt;" style="rounded=0;whiteSpace=wrap;html=1;align=left;shadow=1;" parent="1" vertex="1">
                    <mxGeometry x="-1320" y="-1950" width="320" height="130" as="geometry"/>
                </mxCell>
                <mxCell id="39" value="Func Remove description" style="swimlane;fontStyle=0;childLayout=stackLayout;horizontal=1;startSize=30;horizontalStack=0;resizeParent=1;resizeParentMax=0;resizeLast=0;collapsible=1;marginBottom=0;whiteSpace=wrap;html=1;" parent="1" vertex="1">
                    <mxGeometry x="-1317" y="-1810" width="320" height="230" as="geometry"/>
                </mxCell>
                <mxCell id="40" value="RawFilePath : dir to file data_tags.json processing" style="text;strokeColor=none;fillColor=none;align=left;verticalAlign=middle;spacingLeft=4;spacingRight=4;overflow=hidden;points=[[0,0.5],[1,0.5]];portConstraint=eastwest;rotatable=0;whiteSpace=wrap;html=1;" parent="39" vertex="1">
                    <mxGeometry y="30" width="320" height="30" as="geometry"/>
                </mxCell>
                <mxCell id="41" value="data_root :&amp;nbsp;&lt;span style=&quot;color: rgb(63, 63, 63); background-color: transparent;&quot;&gt;remove tag of object from this data_root&lt;/span&gt;" style="text;strokeColor=none;fillColor=none;align=left;verticalAlign=middle;spacingLeft=4;spacingRight=4;overflow=hidden;points=[[0,0.5],[1,0.5]];portConstraint=eastwest;rotatable=0;whiteSpace=wrap;html=1;" parent="39" vertex="1">
                    <mxGeometry y="60" width="320" height="30" as="geometry"/>
                </mxCell>
                <mxCell id="42" value="- Index == 1 : remove object from data_root[1] ( contains data for func ( REDO processing )&lt;div&gt;- Index == 0 : remove object from data_root[0]&amp;nbsp;&lt;span style=&quot;color: rgb(0, 0, 0); background-color: transparent;&quot;&gt;( contains data for func ( UNDO processing )&lt;/span&gt;&lt;/div&gt;" style="text;strokeColor=none;fillColor=none;align=left;verticalAlign=middle;spacingLeft=4;spacingRight=4;overflow=hidden;points=[[0,0.5],[1,0.5]];portConstraint=eastwest;rotatable=0;whiteSpace=wrap;html=1;" parent="39" vertex="1">
                    <mxGeometry y="90" width="320" height="70" as="geometry"/>
                </mxCell>
                <mxCell id="48" value="cur_canvas : current canvas to call func delete for remove Object from current canvas" style="text;strokeColor=none;fillColor=none;align=left;verticalAlign=middle;spacingLeft=4;spacingRight=4;overflow=hidden;points=[[0,0.5],[1,0.5]];portConstraint=eastwest;rotatable=0;whiteSpace=wrap;html=1;" parent="39" vertex="1">
                    <mxGeometry y="160" width="320" height="70" as="geometry"/>
                </mxCell>
                <mxCell id="45" value="&lt;b&gt;MAIN Func:&lt;/b&gt;&lt;div&gt;&lt;b&gt;EraseObject(&lt;/b&gt;&lt;/div&gt;&lt;div&gt;&lt;span style=&quot;white-space: pre;&quot;&gt;&#x9;&lt;/span&gt;cur_canvas: canvas&lt;/div&gt;&lt;div&gt;&lt;span style=&quot;white-space: pre;&quot;&gt;&#x9;&lt;/span&gt;n: int&lt;/div&gt;&lt;div&gt;&lt;b&gt;)&lt;/b&gt;&lt;/div&gt;" style="rounded=0;whiteSpace=wrap;html=1;align=left;" parent="1" vertex="1">
                    <mxGeometry x="-1830" y="-1950" width="160" height="90" as="geometry"/>
                </mxCell>
                <mxCell id="47" style="edgeStyle=none;html=1;exitX=0;exitY=0.5;exitDx=0;exitDy=0;entryX=1.02;entryY=0.377;entryDx=0;entryDy=0;entryPerimeter=0;" parent="1" source="45" target="24" edge="1">
                    <mxGeometry relative="1" as="geometry"/>
                </mxCell>
                <mxCell id="66" style="edgeStyle=none;html=1;entryX=0;entryY=0.5;entryDx=0;entryDy=0;" parent="1" source="53" target="57" edge="1">
                    <mxGeometry relative="1" as="geometry"/>
                </mxCell>
                <mxCell id="53" value="This shape represents for &lt;u&gt;Utility func&lt;/u&gt;" style="text;strokeColor=none;align=center;fillColor=none;html=1;verticalAlign=middle;whiteSpace=wrap;rounded=0;" parent="1" vertex="1">
                    <mxGeometry x="-2560" y="-2115" width="220" height="40" as="geometry"/>
                </mxCell>
                <mxCell id="59" style="edgeStyle=none;html=1;entryX=0;entryY=0.5;entryDx=0;entryDy=0;" parent="1" source="55" target="58" edge="1">
                    <mxGeometry relative="1" as="geometry"/>
                </mxCell>
                <mxCell id="55" value="This shape represents for Main&lt;u&gt;&amp;nbsp;func&lt;/u&gt;" style="text;strokeColor=none;align=center;fillColor=none;html=1;verticalAlign=middle;whiteSpace=wrap;rounded=0;" parent="1" vertex="1">
                    <mxGeometry x="-2560" y="-2080" width="220" height="40" as="geometry"/>
                </mxCell>
                <mxCell id="57" value="" style="rounded=1;whiteSpace=wrap;html=1;" parent="1" vertex="1">
                    <mxGeometry x="-2320" y="-2105" width="40" height="20" as="geometry"/>
                </mxCell>
                <mxCell id="58" value="" style="rounded=0;whiteSpace=wrap;html=1;" parent="1" vertex="1">
                    <mxGeometry x="-2320" y="-2070" width="40" height="20" as="geometry"/>
                </mxCell>
                <mxCell id="61" value="&lt;span style=&quot;color: rgb(0, 0, 0);&quot;&gt;khung A -&amp;gt; khung B : là A dùng cho B&lt;/span&gt;" style="shape=ext;double=1;rounded=0;whiteSpace=wrap;html=1;" parent="1" vertex="1">
                    <mxGeometry x="-2550" y="-1995" width="120" height="45" as="geometry"/>
                </mxCell>
                <mxCell id="62" value="&lt;span style=&quot;color: rgb(0, 0, 0); text-align: left;&quot;&gt;5 typeDraw:&lt;/span&gt;&lt;div style=&quot;color: rgb(63, 63, 63); scrollbar-color: rgb(226, 226, 226) rgb(251, 251, 251); text-align: left;&quot;&gt;- line : 1&lt;/div&gt;&lt;div style=&quot;color: rgb(63, 63, 63); scrollbar-color: rgb(226, 226, 226) rgb(251, 251, 251); text-align: left;&quot;&gt;- rectangle : 2&lt;/div&gt;&lt;div style=&quot;color: rgb(63, 63, 63); scrollbar-color: rgb(226, 226, 226) rgb(251, 251, 251); text-align: left;&quot;&gt;- oval : 3&lt;/div&gt;&lt;div style=&quot;color: rgb(63, 63, 63); scrollbar-color: rgb(226, 226, 226) rgb(251, 251, 251); text-align: left;&quot;&gt;- freeHand :0&lt;/div&gt;&lt;div style=&quot;color: rgb(63, 63, 63); scrollbar-color: rgb(226, 226, 226) rgb(251, 251, 251); text-align: left;&quot;&gt;- text : 4&lt;/div&gt;" style="shape=ext;double=1;rounded=0;whiteSpace=wrap;html=1;" parent="1" vertex="1">
                    <mxGeometry x="-2550" y="-1940" width="100" height="110" as="geometry"/>
                </mxCell>
                <mxCell id="63" value="&lt;u style=&quot;color: rgb(63, 63, 63); scrollbar-color: rgb(226, 226, 226) rgb(251, 251, 251);&quot;&gt;MAIN func&lt;/u&gt;&lt;span style=&quot;color: rgb(0, 0, 0);&quot;&gt;&amp;nbsp;: set up and logically call&amp;nbsp;&lt;/span&gt;&lt;u style=&quot;color: rgb(63, 63, 63); scrollbar-color: rgb(226, 226, 226) rgb(251, 251, 251);&quot;&gt;Utility func&lt;/u&gt;&lt;span style=&quot;color: rgb(0, 0, 0);&quot;&gt;&amp;nbsp;( all MAIN must unbind &quot;event&quot; before executing )&lt;/span&gt;" style="shape=ext;double=1;rounded=0;whiteSpace=wrap;html=1;align=left;" parent="1" vertex="1">
                    <mxGeometry x="-2550" y="-1820" width="230" height="50" as="geometry"/>
                </mxCell>
                <mxCell id="69" style="edgeStyle=none;html=1;entryX=0;entryY=0.5;entryDx=0;entryDy=0;" parent="1" source="67" target="68" edge="1">
                    <mxGeometry relative="1" as="geometry"/>
                </mxCell>
                <mxCell id="67" value="This shape represents for Main&lt;u&gt;&amp;nbsp;func&lt;/u&gt;" style="text;strokeColor=none;align=center;fillColor=none;html=1;verticalAlign=middle;whiteSpace=wrap;rounded=0;" parent="1" vertex="1">
                    <mxGeometry x="-2560" y="-2050" width="220" height="40" as="geometry"/>
                </mxCell>
                <mxCell id="68" value="" style="shape=ext;double=1;rounded=0;whiteSpace=wrap;html=1;" parent="1" vertex="1">
                    <mxGeometry x="-2320" y="-2040" width="40" height="20" as="geometry"/>
                </mxCell>
                <mxCell id="70" value="EXPLAINING NOTE&amp;nbsp;" style="shape=ext;double=1;rounded=0;whiteSpace=wrap;html=1;fillColor=#f8cecc;strokeColor=#b85450;" parent="1" vertex="1">
                    <mxGeometry x="-2490" y="-2185" width="170" height="55" as="geometry"/>
                </mxCell>
                <mxCell id="72" value="&lt;b&gt;XỬ LÝ CHỨC NĂNG CHO BUTTON&lt;/b&gt;&lt;br&gt;&lt;div&gt;&lt;b&gt;FILE : function.py&lt;/b&gt;&lt;/div&gt;&lt;div&gt;&lt;b&gt;&lt;u&gt;MAIN func&lt;/u&gt;&lt;/b&gt;&lt;/div&gt;" style="shape=partialRectangle;whiteSpace=wrap;html=1;left=0;right=0;fillColor=none;" parent="1" vertex="1">
                    <mxGeometry x="-2120" y="-1685" width="180" height="70" as="geometry"/>
                </mxCell>
                <mxCell id="60" value="" style="shape=link;html=1;" parent="1" edge="1">
                    <mxGeometry width="100" relative="1" as="geometry">
                        <mxPoint x="-2260" y="-2140.0026092529297" as="sourcePoint"/>
                        <mxPoint x="-2260" y="-1537.9991932744565" as="targetPoint"/>
                    </mxGeometry>
                </mxCell>
                <mxCell id="77" value="ID STRUCTOR:&lt;div&gt;For draw : [tag,type_draw,size_pen,pen_color,[coordinate1],..[coordinate n if type draw != freehand]&lt;/div&gt;&lt;div&gt;&lt;br&gt;&lt;/div&gt;&lt;div&gt;&lt;span style=&quot;color: rgb(63, 63, 63);&quot;&gt;For erase : [tag,type_draw,size_pen,pen_color,[coordinate1],..[coordinate n if type draw != freehand], erase.&lt;/span&gt;&lt;/div&gt;" style="rounded=0;whiteSpace=wrap;html=1;" vertex="1" parent="1">
                    <mxGeometry x="-2550" y="-1720" width="280" height="140" as="geometry"/>
                </mxCell>
            </root>
        </mxGraphModel>
    </diagram>
</mxfile>